<?xml version="1.0" encoding="utf-8"?>
<!-- Generator: Adobe Illustrator 24.3.0, SVG Export Plug-In . SVG Version: 6.00 Build 0)  -->
<svg version="1.1" id="Layer_1" xmlns="http://www.w3.org/2000/svg" xmlns:xlink="http://www.w3.org/1999/xlink" x="0px" y="0px"
	 viewBox="0 0 512 512" style="enable-background:new 0 0 512 512;" xml:space="preserve">
<style type="text/css">
	.st0{fill:#0060B6;}
</style>
<g>
	<g>
		<g>
			<path class="st0" d="M255.9,361.62c0,0,28.7-24.74,36.62-108.86c7.92-84.12,32.66-104.9,128.65-190.99
				c0,0-163.29,29.44-161.8,126.67S265.8,346.28,255.9,361.62z"/>
			<path class="st0" d="M195.54,155.78c0,0,37.43,58.63,16.49,80.16c-12.58,12.93-26.17-2.55-32.59-13.66
				c-11.06-19.12-9.01-40.43-13.4-61.28c-4.28-20.34-12.79-39.89-25.93-56.08c-6.78-8.36-14.7-15.77-23.42-22.09
				c-4.89-3.54-10.03-6.74-15.35-9.6C97.19,71,88.7,65.02,83.96,65.23c0.09,0,181.34-8.11,170.21,215.98
				C254.17,281.22,236.36,194.38,195.54,155.78z"/>
			<circle class="st0" cx="252.44" cy="76.14" r="30.68"/>
			<g>
				<path class="st0" d="M379.18,113.18c-9.62,8.97-18.04,17.13-25.4,24.83c24.31,24.76,39.31,58.68,39.31,96.04
					c0,75.65-61.55,137.19-137.19,137.19c-75.65,0-137.19-61.54-137.19-137.19c0-33.8,12.29-64.79,32.62-88.72
					c-4.38-12.22-10.44-23.38-17.94-32.92c-31.03,31.24-50.21,74.24-50.21,121.64c0,95.24,77.48,172.72,172.72,172.72
					c95.23,0,172.72-77.48,172.72-172.72C428.63,187.03,409.76,144.35,379.18,113.18z"/>
			</g>
		</g>
		<g>
			<path class="st0" d="M31.79,256.21c-0.21,0.37-0.49,0.84-0.85,1.42c-0.36,0.58-0.7,1.23-1.02,1.95
				c-0.48,1.08-0.81,2.12-1.01,3.13c-0.2,1.01-0.2,2.03-0.02,3.07c0.17,0.96,0.42,1.75,0.75,2.37c0.33,0.62,0.71,1.08,1.13,1.4
				c0.42,0.32,0.89,0.51,1.39,0.59c0.5,0.08,1.02,0.07,1.54-0.02c0.59-0.1,1.07-0.42,1.46-0.94c0.39-0.52,0.7-1.14,0.95-1.85
				c0.25-0.71,0.44-1.43,0.57-2.17c0.13-0.74,0.24-1.39,0.32-1.93c0.4-2.41,0.91-4.54,1.53-6.4c0.62-1.86,1.4-3.46,2.32-4.79
				c0.93-1.33,2.02-2.4,3.27-3.2c1.25-0.8,2.71-1.35,4.37-1.63c1.76-0.3,3.42-0.23,4.98,0.23c1.56,0.46,2.96,1.26,4.21,2.4
				c1.25,1.14,2.31,2.59,3.19,4.34c0.88,1.76,1.52,3.78,1.91,6.07c0.3,1.72,0.39,3.41,0.28,5.05c-0.11,1.65-0.46,3.31-1.05,4.99
				c-0.27,0.71-0.55,1.39-0.86,2.03c-0.31,0.65-0.61,1.22-0.91,1.72c-0.3,0.5-0.6,0.91-0.9,1.22s-0.57,0.49-0.81,0.54
				c-0.25,0.04-0.48,0.02-0.71-0.07c-0.23-0.09-0.5-0.23-0.81-0.43l-5.38-3.54c-0.38-0.27-0.59-0.56-0.65-0.88
				c-0.05-0.26-0.01-0.52,0.1-0.76c0.11-0.24,0.26-0.52,0.44-0.82l0.18-0.29c0.26-0.43,0.51-0.91,0.77-1.44
				c0.26-0.52,0.48-1.07,0.66-1.65c0.18-0.58,0.31-1.17,0.39-1.79c0.08-0.62,0.06-1.23-0.04-1.83c-0.11-0.62-0.26-1.2-0.46-1.73
				c-0.2-0.53-0.45-0.98-0.75-1.36c-0.3-0.38-0.65-0.66-1.07-0.84c-0.41-0.18-0.88-0.23-1.41-0.14c-0.53,0.09-0.97,0.3-1.31,0.64
				c-0.34,0.33-0.63,0.79-0.87,1.38c-0.24,0.59-0.44,1.3-0.59,2.13c-0.16,0.84-0.32,1.8-0.48,2.9c-0.31,2.12-0.69,4.09-1.12,5.91
				c-0.44,1.82-1.04,3.43-1.82,4.83c-0.78,1.4-1.8,2.57-3.06,3.5c-1.26,0.93-2.88,1.57-4.84,1.91c-2.08,0.36-4.04,0.26-5.88-0.3
				c-1.84-0.56-3.49-1.48-4.93-2.75c-1.45-1.28-2.67-2.86-3.67-4.76c-1-1.89-1.7-3.99-2.1-6.3c-0.38-2.18-0.36-4.38,0.06-6.62
				c0.41-2.23,1.12-4.37,2.11-6.42c0.42-0.85,0.85-1.58,1.29-2.2c0.44-0.61,0.8-1.1,1.07-1.46l0.07-0.1
				c0.03-0.03,0.05-0.05,0.06-0.07c0.01-0.02,0.02-0.04,0.03-0.06c0.03-0.03,0.05-0.05,0.06-0.07c0.01-0.02,0.02-0.04,0.03-0.06
				c0.4-0.52,0.74-0.8,1.03-0.85c0.32-0.06,0.72,0.1,1.19,0.47l5.53,4.1c0.35,0.35,0.55,0.64,0.59,0.89c0.03,0.17,0,0.36-0.08,0.57
				C32.1,255.65,31.97,255.9,31.79,256.21z"/>
			<path class="st0" d="M68.14,290.18c0.32-0.12,0.64-0.13,0.95-0.02c0.31,0.11,0.54,0.36,0.68,0.76l2.96,7.93
				c0.1,0.27,0.1,0.6,0,0.98c-0.1,0.39-0.33,0.65-0.69,0.78l-37.7,14.05c-0.79,0.3-1.35,0-1.68-0.88l-2.96-7.93
				c-0.3-0.79-0.05-1.33,0.74-1.63L68.14,290.18z"/>
			<path class="st0" d="M78.78,317.62c0.31-0.16,0.63-0.21,0.97-0.15c0.33,0.06,0.62,0.26,0.85,0.61l5.47,8.33
				c0.39,0.59,0.34,1.18-0.16,1.76l-17.55,20.91l26.18-7.77c0.76-0.18,1.33,0.03,1.72,0.63l5.41,8.23c0.19,0.29,0.26,0.62,0.21,0.98
				c-0.05,0.36-0.21,0.66-0.5,0.9c-5.28,4.27-10.5,8.53-15.68,12.77c-5.17,4.24-10.4,8.5-15.68,12.77l-0.12,0.08
				c-0.63,0.41-1.17,0.26-1.63-0.44l-4.48-6.81c-0.49-0.74-0.39-1.36,0.3-1.85l17.22-14.32l-22.28,6.89
				c-0.18,0.07-0.45,0.08-0.81,0.03c-0.36-0.05-0.6-0.18-0.72-0.37l-4.16-6.33c-0.13-0.19-0.15-0.47-0.08-0.83
				c0.07-0.36,0.19-0.6,0.36-0.74l15.11-17.69l-19.93,10.1c-0.73,0.43-1.34,0.27-1.83-0.48l-4.48-6.81
				c-0.45-0.69-0.33-1.27,0.38-1.73L78.78,317.62z"/>
			<path class="st0" d="M128.05,404.27c-1.33,1.54-2.79,2.84-4.38,3.89c-1.59,1.05-3.27,1.86-5.03,2.43
				c-1.76,0.57-3.57,0.91-5.42,1.01c-1.85,0.1-3.68-0.03-5.5-0.41c-1.82-0.38-3.6-0.99-5.34-1.85c-1.74-0.86-3.38-1.94-4.91-3.26
				l-10.75-9.27c-0.26-0.23-0.44-0.48-0.55-0.78c-0.1-0.29,0.01-0.63,0.33-1l26.27-30.47c0.26-0.31,0.56-0.48,0.89-0.53
				c0.33-0.04,0.66,0.08,1,0.37l10.75,9.27c1.53,1.32,2.84,2.77,3.93,4.38c1.09,1.6,1.95,3.28,2.58,5.04
				c0.63,1.76,1.03,3.56,1.21,5.41c0.18,1.85,0.11,3.69-0.21,5.52c-0.32,1.83-0.88,3.61-1.69,5.35
				C130.42,401.11,129.36,402.74,128.05,404.27z M115.35,378.64l-14.46,16.77l1.83,1.58c0.33,0.29,0.67,0.56,1.01,0.81
				c0.34,0.25,0.68,0.5,1.03,0.75c1.17,0.85,2.41,1.47,3.74,1.84c1.33,0.37,2.65,0.5,3.98,0.39c1.33-0.11,2.61-0.48,3.85-1.11
				c1.24-0.63,2.35-1.52,3.35-2.67c1.05-1.22,1.79-2.54,2.22-3.96c0.43-1.42,0.57-2.84,0.43-4.27c-0.14-1.43-0.56-2.8-1.25-4.12
				c-0.7-1.32-1.64-2.5-2.83-3.53L115.35,378.64z"/>
			<path class="st0" d="M160.67,399.95c0.07-0.09,0.18-0.18,0.34-0.25c0.16-0.07,0.33-0.12,0.52-0.15c0.19-0.03,0.38-0.04,0.56-0.02
				c0.18,0.02,0.34,0.06,0.48,0.13l6.55,3.38c0.29,0.15,0.49,0.37,0.6,0.65c0.11,0.28,0.18,0.52,0.22,0.71l-0.11,1.79l-4.43,41.59
				c-0.04,0.41-0.21,0.68-0.51,0.79c-0.3,0.12-0.68,0.06-1.14-0.18l-7.35-3.79c-0.39-0.2-0.66-0.43-0.8-0.69
				c-0.14-0.26-0.18-0.58-0.12-0.99c0.11-1.05,0.22-2.08,0.34-3.11c0.12-1.03,0.24-2.06,0.37-3.1l-13.59-7.01
				c-0.77,0.7-1.55,1.4-2.32,2.09c-0.78,0.69-1.55,1.39-2.32,2.09c-0.55,0.52-1.15,0.61-1.79,0.27l-7.55-3.89
				c-0.32-0.17-0.55-0.39-0.67-0.67c-0.13-0.28-0.03-0.56,0.28-0.83L160.67,399.95z M159.68,413.31c-0.77,0.7-1.59,1.47-2.44,2.31
				c-0.85,0.84-1.7,1.68-2.56,2.54c-0.85,0.86-1.7,1.7-2.55,2.53c-0.85,0.83-1.66,1.59-2.43,2.29l7.86,4.05L159.68,413.31z"/>
			<path class="st0" d="M188.25,413.29c0.1-0.37,0.3-0.63,0.61-0.79c0.31-0.15,0.65-0.18,1.02-0.08l29.94,8
				c0.33,0.09,0.6,0.27,0.81,0.54c0.21,0.27,0.27,0.62,0.2,1.03l-1.85,6.91c-0.09,0.33-0.29,0.62-0.6,0.86
				c-0.31,0.24-0.68,0.31-1.11,0.19l-9.6-2.57l-8.15,30.46c-0.09,0.33-0.29,0.6-0.6,0.81c-0.31,0.2-0.66,0.26-1.05,0.15l-8.16-2.18
				c-0.31-0.08-0.58-0.29-0.79-0.61c-0.21-0.32-0.27-0.67-0.17-1.04l8.15-30.46l-9.57-2.56c-0.37-0.1-0.65-0.3-0.84-0.61
				c-0.19-0.31-0.22-0.69-0.09-1.15L188.25,413.29z"/>
			<path class="st0" d="M241.11,423.75c0.02-0.11,0.09-0.24,0.2-0.37c0.11-0.13,0.25-0.25,0.41-0.36c0.16-0.11,0.33-0.19,0.5-0.25
				c0.18-0.06,0.34-0.08,0.49-0.08l7.36,0.35c0.33,0.02,0.6,0.13,0.82,0.34c0.22,0.21,0.38,0.4,0.49,0.56l0.64,1.67l13.24,39.67
				c0.13,0.39,0.09,0.7-0.13,0.93c-0.22,0.23-0.59,0.33-1.11,0.31l-8.26-0.39c-0.44-0.02-0.78-0.12-1.01-0.29
				c-0.23-0.17-0.41-0.46-0.52-0.85c-0.34-1-0.66-1.99-0.98-2.97c-0.32-0.99-0.64-1.98-0.95-2.97l-15.27-0.73
				c-0.41,0.96-0.83,1.92-1.25,2.87c-0.42,0.95-0.84,1.91-1.25,2.87c-0.28,0.7-0.79,1.03-1.52,0.99l-8.49-0.41
				c-0.36-0.02-0.66-0.13-0.89-0.33c-0.23-0.2-0.26-0.49-0.09-0.87L241.11,423.75z M245.75,436.31c-0.41,0.96-0.83,2-1.26,3.11
				c-0.43,1.11-0.85,2.24-1.27,3.37c-0.42,1.13-0.84,2.25-1.27,3.36c-0.43,1.1-0.85,2.14-1.26,3.1l8.83,0.42L245.75,436.31z"/>
			<path class="st0" d="M278.93,423.82c-0.07-0.34-0.02-0.65,0.14-0.94c0.17-0.29,0.45-0.47,0.84-0.55l8.33-1.71
				c0.28-0.06,0.6-0.01,0.96,0.16c0.36,0.16,0.57,0.43,0.65,0.81l3.16,15.37c1.51-3.05,2.99-6.06,4.44-9.03
				c1.45-2.96,2.92-5.97,4.41-9.02c0.14-0.36,0.36-0.68,0.64-0.94c0.29-0.26,0.59-0.43,0.91-0.5l10.72-2.2
				c0.45-0.09,0.71,0,0.76,0.28c0.04,0.19-0.02,0.44-0.17,0.74l-9.69,20.25l19.24,19.1c0.27,0.28,0.43,0.51,0.47,0.7
				c0.06,0.28-0.12,0.47-0.53,0.55l-10.66,2.19c-0.32,0.07-0.65,0.04-1-0.09c-0.35-0.12-0.66-0.32-0.93-0.6
				c-1.28-1.15-2.45-2.26-3.52-3.33c-1.07-1.07-2.12-2.15-3.15-3.22c-1.02-1.07-2.06-2.16-3.11-3.26c-1.05-1.1-2.19-2.25-3.41-3.44
				l-2.74,4.85l2.26,11c0.17,0.83-0.2,1.33-1.1,1.52l-8.3,1.7c-0.84,0.17-1.35-0.15-1.52-0.98L278.93,423.82z"/>
			<path class="st0" d="M348.19,428.96c0.63,1.28,1.34,2.27,2.13,2.98c0.79,0.71,1.61,1.21,2.47,1.48c0.85,0.28,1.73,0.35,2.62,0.23
				c0.9-0.12,1.76-0.38,2.59-0.79c0.86-0.43,1.6-0.98,2.22-1.66c0.62-0.68,1.07-1.46,1.36-2.34c0.29-0.88,0.38-1.84,0.28-2.89
				c-0.1-1.04-0.42-2.14-0.99-3.27l-10.8-21.93c-0.15-0.31-0.18-0.63-0.07-0.96c0.1-0.33,0.34-0.58,0.7-0.76l7.54-3.72
				c0.4-0.19,0.76-0.23,1.1-0.11c0.34,0.12,0.58,0.33,0.72,0.62l10.73,21.78c1.48,3.01,2.29,5.76,2.41,8.25
				c0.12,2.49-0.26,4.72-1.14,6.71c-0.88,1.99-2.18,3.74-3.88,5.25c-1.71,1.51-3.64,2.81-5.81,3.87c-2.17,1.07-4.38,1.81-6.64,2.23
				c-2.26,0.42-4.45,0.36-6.57-0.17c-2.12-0.53-4.13-1.59-6.02-3.2c-1.89-1.6-3.57-3.89-5.03-6.85l-10.73-21.78
				c-0.14-0.29-0.17-0.6-0.09-0.93c0.08-0.33,0.27-0.57,0.56-0.71l7.73-3.81c0.26-0.13,0.58-0.15,0.97-0.08
				c0.39,0.08,0.67,0.28,0.83,0.6L348.19,428.96z"/>
			<path class="st0" d="M385.68,403.4c-0.53-0.66-0.47-1.25,0.18-1.78l15.24-12.39c0.27-0.22,0.57-0.32,0.9-0.31
				c0.33,0.01,0.63,0.18,0.88,0.49l3.69,4.54c0.18,0.22,0.28,0.53,0.3,0.92s-0.12,0.71-0.42,0.95l-15.24,12.39
				c-0.66,0.53-1.27,0.44-1.86-0.27L385.68,403.4z"/>
			<path class="st0" d="M401.28,362.22c-0.27-0.21-0.44-0.48-0.51-0.8c-0.07-0.32,0.03-0.65,0.29-0.98l5.76-7.45
				c0.16-0.21,0.39-0.39,0.67-0.54c0.28-0.15,0.62-0.2,1-0.17c4.6,0.48,9.15,0.94,13.64,1.38c4.49,0.44,9.04,0.89,13.66,1.36
				l-18.24-14.12c-0.23-0.27-0.34-0.56-0.36-0.86c-0.01-0.3,0.08-0.57,0.27-0.81l5.02-6.49c0.25-0.32,0.54-0.52,0.88-0.59
				c0.34-0.08,0.67,0.01,0.99,0.25l31.93,24.71c0.3,0.24,0.46,0.5,0.46,0.79c0,0.29-0.12,0.6-0.37,0.92l-5.62,7.27
				c-0.15,0.2-0.36,0.32-0.61,0.37c-0.25,0.05-0.56,0.06-0.92,0.06c-4.9-0.56-9.75-1.12-14.54-1.68c-4.79-0.55-9.65-1.1-14.56-1.65
				l19.57,15.14c0.33,0.26,0.53,0.53,0.58,0.81c0.05,0.28-0.08,0.62-0.38,1.01l-5,6.47c-0.27,0.35-0.56,0.53-0.88,0.54
				c-0.31,0.01-0.61-0.09-0.88-0.3L401.28,362.22z"/>
			<path class="st0" d="M430.9,320.89c-0.35-0.15-0.58-0.39-0.69-0.72c-0.11-0.33-0.08-0.67,0.07-1.02l12.41-28.39
				c0.14-0.32,0.36-0.56,0.66-0.72c0.3-0.16,0.65-0.18,1.05-0.04l6.55,2.86c0.32,0.14,0.57,0.38,0.76,0.73
				c0.19,0.35,0.2,0.72,0.02,1.13l-3.98,9.1l28.89,12.63c0.32,0.14,0.55,0.38,0.71,0.72c0.16,0.34,0.15,0.69-0.01,1.06l-3.38,7.74
				c-0.13,0.3-0.37,0.53-0.72,0.69c-0.35,0.16-0.71,0.16-1.06,0.01l-28.89-12.63l-3.97,9.08c-0.15,0.35-0.4,0.6-0.73,0.73
				c-0.33,0.14-0.72,0.11-1.16-0.08L430.9,320.89z"/>
			<path class="st0" d="M448.23,277.16c-0.4-0.07-0.69-0.24-0.89-0.5c-0.2-0.26-0.26-0.59-0.19-0.99l3.41-18.82
				c0.3-1.66,0.9-3.17,1.8-4.53c0.9-1.36,2-2.49,3.31-3.4c1.31-0.9,2.76-1.54,4.36-1.92c1.6-0.37,3.25-0.41,4.95-0.1
				c1.42,0.26,2.69,0.72,3.83,1.38c1.14,0.67,2.12,1.49,2.93,2.48c1.49-1.13,3.17-1.94,5.03-2.42c1.86-0.48,3.76-0.55,5.68-0.2
				c1.72,0.31,3.29,0.94,4.71,1.88c1.42,0.94,2.61,2.08,3.57,3.41c0.96,1.33,1.64,2.81,2.05,4.44c0.41,1.63,0.46,3.27,0.16,4.93
				l-3.71,20.49c-0.07,0.38-0.22,0.66-0.46,0.85c-0.24,0.19-0.57,0.25-0.98,0.17L448.23,277.16z M463.26,257.85
				c-0.57-0.1-1.11-0.09-1.64,0.03c-0.53,0.12-1.02,0.33-1.46,0.64c-0.45,0.31-0.83,0.71-1.14,1.2c-0.31,0.49-0.53,1.05-0.64,1.67
				l-1.1,6.08l8.22,1.49l1.09-6c0.12-0.64,0.12-1.25,0.02-1.83c-0.1-0.58-0.3-1.09-0.6-1.53c-0.3-0.45-0.68-0.82-1.14-1.13
				C464.4,258.17,463.87,257.96,463.26,257.85z M480,259.33c-0.57-0.1-1.15-0.1-1.76,0.02c-0.61,0.12-1.17,0.33-1.68,0.63
				c-0.51,0.31-0.96,0.71-1.34,1.19c-0.38,0.49-0.63,1.04-0.74,1.67l-1.36,7.5l9.46,1.71l1.36-7.5c0.11-0.62,0.09-1.23-0.08-1.8
				c-0.17-0.58-0.44-1.11-0.81-1.58c-0.37-0.48-0.82-0.88-1.35-1.2C481.17,259.65,480.61,259.44,480,259.33z"/>
		</g>
	</g>
</g>
</svg>
